<?xml version="1.0" ?><!DOCTYPE svg  PUBLIC '-//W3C//DTD SVG 1.1//EN'  'http://www.w3.org/Graphics/SVG/1.1/DTD/svg11.dtd'><svg height="256px" style="shape-rendering:geometricPrecision; text-rendering:geometricPrecision; image-rendering:optimizeQuality; fill-rule:evenodd; clip-rule:evenodd" version="1.1" viewBox="0 0 256000 256000" width="256px" xml:space="preserve" xmlns="http://www.w3.org/2000/svg" xmlns:xlink="http://www.w3.org/1999/xlink"><defs><style type="text/css">
   <![CDATA[
    .fil3 {fill:none}
    .fil0 {fill:none;fill-rule:nonzero}
    .fil2 {fill:#424242;fill-rule:nonzero}
    .fil1 {fill:#7EB900;fill-rule:nonzero}
   ]]>
  </style></defs><g id="Layer_x0020_1"><g id="_396606000"><polyline class="fil0" points="73635,46663 73539,46601 75018,44323 76497,42047 "/><path class="fil0" d="M73983 46917c-1,0 22,10 5,-7l1506 -2258 476 -715 835 -1253 200 -299 -15 -8 -79 -53"/><path class="fil1" d="M221031 40136c315,318 632,636 896,923l-5 5c10769,11638 19402,25269 25275,40269 5666,14470 8777,30211 8777,46665 0,16248 -3037,31793 -8568,46108 -5741,14853 -14166,28359 -24667,39929l-36 92c-11935,13097 -26560,23722 -43000,30991 -15813,6993 -33299,10882 -51678,10882 -35335,0 -67335,-14333 -90501,-37499 -23166,-23166 -37498,-55167 -37498,-90503 0,-16622 3163,-32509 8932,-47085 5975,-15099 14756,-28796 25719,-40448l1 1c671,-745 6544,-6996 15525,-7608l329 0c4400,254 8862,1340 13258,2978 4333,1615 8576,3751 12611,6148l96 63 414 277 83 46c16646,10050 29852,24605 29891,24647l1789 1960 -1928 1837c-8072,7700 -22631,24573 -35700,42767 -9650,13435 -18461,27560 -23178,39161 -8809,21622 -10981,36659 -11047,46094 2622,-6421 6451,-13331 10860,-20227 11967,-18720 28298,-37528 35912,-45668l0 -11c3182,-3379 7560,-7912 12310,-12777 5529,-5664 11561,-11776 16785,-17026 8334,-8446 13262,-13369 13276,-13383l1887 -1886 1922 1854c1911,1844 3789,3664 5636,5469 1820,1780 3598,3531 5326,5261 7957,7908 14916,15095 20892,21430 5899,6253 10941,11793 15057,16393l11 0c4176,4690 10240,11787 15688,18348 4857,5848 9141,11174 11026,13834 5742,8051 9866,15301 12811,21387 1419,2930 2569,5617 3498,8014 799,-10739 -528,-20553 -3491,-30188 -4065,-13223 -11219,-26199 -20188,-40760 -17977,-29184 -47295,-57692 -47380,-57775l-2015 -1972 2057 -1943c13353,-12604 25463,-20872 34826,-26176 9463,-5360 16163,-7723 18565,-8483l650 -117c3081,-203 6388,121 9627,1381 2749,1069 5419,2805 7816,5450l11 0c303,336 569,604 835,871z"/><polygon class="fil2" points="60258,26098 60295,26072 60290,26066 "/><path class="fil1" d="M60162 26165l96 -67c-147,143 -305,291 -570,467l-3467 -4138c399,-419 888,-859 1378,-1263 568,-466 1127,-877 1543,-1145l2 2c10097,-6567 21002,-11601 32631,-14979 11441,-3322 23551,-5042 36250,-5042 11781,0 23233,1612 34125,4622 11235,3105 21853,7702 31605,13553l-2 1c906,533 2674,1719 4366,3100 1232,1006 2446,2126 3335,3212l-4117 3542c-31,-33 -64,-63 -95,-96l-1 0 -6 -7c-16497,-17833 -67506,23202 -67653,23320l-1660 1325 -1692 -1304c-9154,-7053 -17920,-12975 -25953,-17547 -7877,-4484 -15029,-7658 -21125,-9312l0 -11c-4273,-1172 -7947,-1410 -10981,-1098 -3647,375 -6288,1524 -7876,2760l0 1 -5 5 -2 -1 -43 34 -77 60 -6 6z"/><path class="fil2" d="M60149 26174c-73,52 -45,32 6,-3l-1 -1 -5 4z"/></g></g><rect class="fil3" height="256000" width="256000"/></svg>